<?xml version="1.0" encoding="UTF-8"?>
<svg width="636px" height="481px" viewBox="0 0 636 481" version="1.1" xmlns="http://www.w3.org/2000/svg" xmlns:xlink="http://www.w3.org/1999/xlink">
    <!-- Generator: Sketch 63.1 (92452) - https://sketch.com -->
    <title>BG_404</title>
    <desc>Created with Sketch.</desc>
    <defs>
        <rect id="path-1" x="0" y="0" width="1366" height="768"></rect>
        <linearGradient x1="50%" y1="0%" x2="50%" y2="100%" id="linearGradient-3">
            <stop stop-color="#778A95" offset="0%"></stop>
            <stop stop-color="#42525C" offset="100%"></stop>
        </linearGradient>
    </defs>
    <g id="O_其他" stroke="none" stroke-width="1" fill="none" fill-rule="evenodd">
        <g id="O-2_404" transform="translate(-730.000000, -287.000000)">
            <g id="BG_404">
                <mask id="mask-2" fill="white">
                    <use xlink:href="#path-1"></use>
                </mask>
                <g id="Mask"></g>
                <path d="M1069.24508,292.635504 C834.689766,331.994265 682.960224,565.071277 743.259369,796.453088 C745.028719,803.250954 751.181092,808 758.221243,808 L1378.55233,808 C1387.07004,808 1394,801.074955 1394,792.563276 L1394,385.680813 C1394,380.899198 1391.84263,376.466548 1388.08199,373.51817 C1311.46136,313.46027 1219.78574,284.516218 1125.49334,287.166812 C1119.06625,287.346723 1114.00343,292.699093 1114.18347,299.121627 C1114.36351,305.54416 1119.76158,310.567726 1126.14676,310.423486 C1161.40029,309.432422 1197.12409,313.151628 1232.00357,321.975051 L1274.85599,382.636275 C1297.70855,414.983138 1309.78669,453.011174 1309.78669,492.607233 L1309.78669,545.752495 C1309.78669,552.556565 1302.98245,557.237369 1296.62365,554.803909 C1275.20365,546.622585 1253.47013,566.124381 1259.33537,588.287627 L1261.70227,597.232025 C1265.54828,611.761436 1275.23159,624.387818 1288.27356,631.875862 L1296.5414,636.621805 C1307.48188,642.90165 1312.02476,656.393469 1307.10783,668.00397 L1292.31513,702.939388 C1289.97152,708.474771 1285.07476,709.479794 1283.07881,709.655053 C1281.08597,709.831863 1276.08678,709.693827 1272.81348,704.646997 L1236.11188,648.06015 C1222.03623,626.35909 1200.35703,611.373696 1175.0724,605.863128 C1168.79431,604.490527 1162.58917,608.473397 1161.22025,614.75014 C1159.84978,621.026883 1163.83237,627.224527 1170.11356,628.592475 C1189.36068,632.786277 1205.8622,644.193602 1216.57763,660.712898 L1253.27923,717.298194 C1259.65976,727.137496 1270.4978,732.961359 1282.08549,732.961359 C1295.88643,732.961359 1308.34327,724.793993 1313.75841,712.00321 L1328.55111,677.067791 C1338.04818,654.639331 1329.27437,628.576966 1308.1415,616.445341 L1299.87522,611.699398 C1292.18786,607.28536 1286.48093,599.843845 1284.21492,591.279433 L1281.84803,582.335035 C1281.18375,579.82713 1282.47661,578.203272 1283.30386,577.458811 C1284.13421,576.714349 1285.88804,575.60386 1288.31236,576.529784 C1309.88602,584.780902 1333.07227,568.824605 1333.07227,545.747842 L1333.07227,492.60258 C1333.07227,448.175275 1319.51967,405.508311 1293.87961,369.21425 L1268.41183,333.16214 C1304.82475,346.407355 1339.21688,365.284113 1370.72373,389.49618 L1370.72373,784.732469 L1111.08245,784.732469 L1112.05094,784.264078 C1131.73884,774.741172 1136.22585,748.729989 1121.01254,733.153678 L1117.5949,729.653157 C1094.6368,706.146777 1058.59328,700.972768 1029.94377,717.077957 L1019.94229,722.700194 C998.121854,734.965201 982.342043,755.969879 976.645977,780.33239 L975.61696,784.732469 L764.313085,784.732469 C718.511747,596.75743 819.279347,402.308677 1002.54057,334.365686 L994.544352,356.333511 C984.595637,383.664563 956.450552,400.587109 927.63032,396.562363 C912.36269,394.426688 898.107004,404.131057 894.479836,419.128859 C886.794027,450.903417 876.572149,476.094141 863.75212,501.719134 C856.680927,515.848398 860.885462,532.770944 873.748949,541.954189 C881.540298,547.51749 882.123873,558.890694 874.914547,565.215517 L867.009897,572.151419 C856.511753,581.362582 849.792878,594.066511 848.090266,607.924356 L846.215376,623.184271 C844.047146,640.828014 835.7312,657.26666 822.79787,669.472731 L790.637602,699.826607 C785.360592,704.805195 781.887078,711.210668 780.591107,718.346644 C776.720265,739.659963 793.375438,758.175347 813.850235,758.175347 C820.777086,758.175347 827.688416,756.030367 833.601771,751.769874 L888.909487,711.927212 C891.431587,710.109485 894.73903,709.816353 897.540501,711.16569 C915.649956,719.875892 936.231845,719.125227 952.599887,709.150991 L979.646112,692.667367 C996.413034,682.449629 1006.82737,663.910981 1006.82737,644.28821 L1006.82737,641.232815 C1006.82737,632.476084 1012.03298,624.589443 1020.08663,621.138552 L1027.98197,617.755904 C1048.36674,609.02709 1070.59692,606.906925 1092.26681,611.628054 L1115.83486,616.763289 C1122.12071,618.134339 1128.31809,614.15302 1129.68701,607.876277 C1131.05748,601.599533 1127.07489,595.40189 1120.7937,594.03239 L1097.22564,588.898706 C1070.79248,583.138433 1043.67641,585.723887 1018.81084,596.372792 L1010.9155,599.75544 C994.288262,606.875906 983.544891,623.156354 983.544891,641.232815 L983.544891,644.28821 C983.544891,655.855285 977.404935,666.783363 967.522959,672.805748 L940.476734,689.289372 C930.878785,695.138049 918.603529,695.479261 907.638214,690.204439 C897.140069,685.152956 884.748409,686.244833 875.29325,693.055107 L819.985535,732.897769 C814.646443,736.745706 809.63794,734.149395 808.228668,733.260694 C801.955235,729.30419 801.952131,721.14613 806.620732,716.741398 L838.781001,686.387522 C855.648806,670.469999 866.493061,649.031052 869.320917,626.02098 L871.195808,610.761066 C872.201543,602.57819 876.170165,595.074637 882.370651,589.633862 L890.275301,582.69796 C908.738626,566.498162 907.301417,537.319915 887.281374,523.024699 C883.796996,520.536956 882.657782,515.952312 884.573027,512.122987 C898.41276,484.452275 909.108016,457.66406 917.10579,424.592898 C917.908206,421.278492 921.049578,419.131961 924.406688,419.601902 C964.050997,425.135735 1002.74079,401.868203 1016.42066,364.286844 L1030.66703,325.152972 C1044.47417,321.211978 1058.63208,318.004588 1073.09885,315.575782 C1079.43747,314.511822 1083.71495,308.512701 1082.65023,302.177022 C1081.58862,295.845995 1075.5899,291.574646 1069.24508,292.635504 L1069.24508,292.635504 Z M1031.73626,743.013128 L1041.71034,737.359879 C1061.1276,726.357488 1085.5613,729.888234 1101.12142,745.954376 L1104.53124,749.474206 C1108.66389,753.741044 1107.44422,760.864917 1102.09654,763.472429 C1060.23451,783.881826 1061.64611,783.075556 1058.5474,785 L1000,785 C1004.37411,767.252698 1015.89909,751.988147 1031.73626,743.013128 Z" id="Shape" fill="url(#linearGradient-3)" fill-rule="nonzero" mask="url(#mask-2)"></path>
            </g>
        </g>
    </g>
</svg>