<?xml version="1.0" encoding="utf-8"?>
<!-- Generator: Adobe Illustrator 24.1.0, SVG Export Plug-In . SVG Version: 6.00 Build 0)  -->
<svg version="1.1" id="圖層_1" xmlns="http://www.w3.org/2000/svg" xmlns:xlink="http://www.w3.org/1999/xlink" x="0px" y="0px"
	 viewBox="0 0 700 26" style="enable-background:new 0 0 700 26;" xml:space="preserve">
<style type="text/css">
	.st0{fill:#FF9900;}
	.st1{fill:none;}
	.st2{fill:#FF6600;}
</style>
<desc>Created with Sketch.</desc>
<g id="_x34__x5F_文章內頁">
	<g id="_x34_-1_x5F_文章內頁" transform="translate(-260.000000, -2814.000000)">
		<g id="article" transform="translate(83.000000, 581.000000)">
			<g id="quote" transform="translate(145.000000, 2086.000000)">
				<g id="BG_blockquote--after" transform="translate(32.000000, 144.000000)">
					<rect id="Rectangle-Copy" y="15" class="st0" width="652" height="1"/>
					
						<g id="icon_quote-copy" transform="translate(586.000000, 16.000000) rotate(-180.000000) translate(-586.000000, -16.000000) translate(570.000000, 0.000000)">
						<rect id="Rectangle" x="-98" y="0" class="st1" width="32" height="32"/>
						<path id="_x201C_" class="st2" d="M-90.7,29c4.1,0,6-3.2,6-5.8c0-3.3-2.2-5.9-5.7-5.9c-1.2,0-2.4,0.5-3,1.1
							c0-5.1,3.6-10,8.5-12.5L-86.5,3C-92.2,5.5-98,12.2-98,20.4C-98,25.4-94.7,29-90.7,29z M-72.7,29c4.1,0,6.1-3.2,6.1-5.8
							c0-3.3-2.3-5.9-5.7-5.9c-1.2,0-2.4,0.5-3.1,1.1c0.1-5.1,3.7-10,8.6-12.5L-68.4,3c-5.8,2.5-11.5,9.2-11.5,17.4
							C-79.9,25.4-76.5,29-72.7,29z"/>
					</g>
				</g>
			</g>
		</g>
	</g>
</g>
</svg>
