<?xml version="1.0" encoding="utf-8"?>
<!-- Generator: Adobe Illustrator 24.1.0, SVG Export Plug-In . SVG Version: 6.00 Build 0)  -->
<svg version="1.1" id="圖層_1" xmlns="http://www.w3.org/2000/svg" xmlns:xlink="http://www.w3.org/1999/xlink" x="0px" y="0px"
	 viewBox="0 0 640 19" style="enable-background:new 0 0 640 19;" xml:space="preserve">
<style type="text/css">
	.st0{fill:none;}
	.st1{fill:#FF6600;}
	.st2{fill:#FF9900;}
</style>
<desc>Created with Sketch.</desc>
<g id="_x34__x5F_文章內頁">
	<g id="BG_blockquote--before--M" transform="translate(0.000000, -2.000000)">
		<g id="icon_quote">
			<rect id="Rectangle" y="0" class="st0" width="24" height="24"/>
			<path id="_x201C_" class="st1" d="M5.6,21c3.1,0,4.6-2.4,4.6-4.2c0-2.4-1.6-4.3-4.3-4.3c-0.9,0-1.8,0.4-2.3,0.8
				c0-3.7,2.8-7.3,6.5-9.2L8.8,2C4.4,3.9,0,8.7,0,14.8C0,18.4,2.5,21,5.6,21z M19.4,21c3.1,0,4.6-2.4,4.6-4.2c0-2.4-1.7-4.3-4.4-4.3
				c-0.9,0-1.8,0.4-2.4,0.8c0.1-3.7,2.9-7.3,6.6-9.2L22.6,2c-4.4,1.9-8.8,6.7-8.8,12.8C13.9,18.4,16.4,21,19.4,21z"/>
		</g>
		<rect id="Rectangle_1_" x="32" y="11" class="st2" width="608" height="1"/>
	</g>
</g>
</svg>
