<?xml version="1.0" encoding="utf-8"?>
<!-- Generator: Adobe Illustrator 24.1.0, SVG Export Plug-In . SVG Version: 6.00 Build 0)  -->
<svg version="1.1" id="圖層_1" xmlns="http://www.w3.org/2000/svg" xmlns:xlink="http://www.w3.org/1999/xlink" x="0px" y="0px"
	 viewBox="0 0 640 19" style="enable-background:new 0 0 640 19;" xml:space="preserve">
<style type="text/css">
	.st0{fill:#FF9900;}
	.st1{fill:none;}
	.st2{fill:#FF6600;}
</style>
<desc>Created with Sketch.</desc>
<g id="_x34__x5F_文章內頁">
	<g id="BG_blockquote--after--M" transform="translate(0.000000, -3.000000)">
		<polygon id="Rectangle-Copy" class="st0" points="0,11 608,11 608,12 0,12 		"/>
		
			<g id="icon_quote-copy" transform="translate(349.000000, 12.000000) rotate(-180.000000) translate(-349.000000, -12.000000) translate(337.000000, 0.000000)">
			<rect id="Rectangle" x="-279" y="0" class="st1" width="24" height="24"/>
			<path id="_x201C_" class="st2" d="M-273.5,21c3.2,0,4.6-2.4,4.6-4.2c0-2.4-1.6-4.3-4.4-4.3c-0.9,0-1.8,0.4-2.3,0.8
				c0-3.7,2.8-7.3,6.5-9.2l-1.2-2.1c-4.4,1.9-8.8,6.7-8.8,12.8C-279,18.4-276.5,21-273.5,21z M-259.6,21c3.1,0,4.6-2.4,4.6-4.2
				c0-2.4-1.7-4.3-4.4-4.3c-0.9,0-1.8,0.4-2.4,0.8c0.1-3.7,2.9-7.3,6.6-9.2l-1.2-2.1c-4.4,1.9-8.8,6.7-8.8,12.8
				C-265.1,18.4-262.6,21-259.6,21z"/>
		</g>
	</g>
</g>
</svg>
