<?xml version="1.0" encoding="utf-8"?>
<!-- Generator: Adobe Illustrator 24.1.0, SVG Export Plug-In . SVG Version: 6.00 Build 0)  -->
<svg version="1.1" id="圖層_1" xmlns="http://www.w3.org/2000/svg" xmlns:xlink="http://www.w3.org/1999/xlink" x="0px" y="0px"
	 viewBox="0 0 700 26" style="enable-background:new 0 0 700 26;" xml:space="preserve">
<style type="text/css">
	.st0{fill:none;}
	.st1{fill:#FF6600;}
	.st2{fill:#FF9900;}
</style>
<desc>Created with Sketch.</desc>
<g id="_x34__x5F_文章內頁">
	<g id="_x34_-1_x5F_文章內頁" transform="translate(-228.000000, -2670.000000)">
		<g id="article" transform="translate(83.000000, 581.000000)">
			<g id="quote" transform="translate(145.000000, 2086.000000)">
				<g id="BG_blockquote--before">
					<g id="icon_quote">
						<rect id="Rectangle" y="0" class="st0" width="32" height="32"/>
						<path id="_x201C_" class="st1" d="M7.3,29c4.1,0,6-3.2,6-5.8c0-3.3-2.2-5.9-5.7-5.9c-1.2,0-2.4,0.5-3,1.1
							c0-5.1,3.6-10,8.5-12.5L11.5,3C5.8,5.5,0,12.2,0,20.4C0,25.4,3.3,29,7.3,29z M25.3,29c4.1,0,6.1-3.2,6.1-5.8
							c0-3.3-2.3-5.9-5.7-5.9c-1.2,0-2.4,0.5-3.1,1.1c0.1-5.1,3.7-10,8.6-12.5L29.6,3c-5.8,2.5-11.5,9.2-11.5,17.4
							C18.1,25.4,21.5,29,25.3,29z"/>
					</g>
					<rect id="Rectangle_1_" x="48" y="16" class="st2" width="652" height="1"/>
				</g>
			</g>
		</g>
	</g>
</g>
</svg>
