<?xml version="1.0" encoding="utf-8"?>
<!-- Generator: Adobe Illustrator 24.0.2, SVG Export Plug-In . SVG Version: 6.00 Build 0)  -->
<svg version="1.1" id="圖層_1" xmlns="http://www.w3.org/2000/svg" xmlns:xlink="http://www.w3.org/1999/xlink" x="0px" y="0px"
	 viewBox="0 0 54 88" style="enable-background:new 0 0 54 88;" xml:space="preserve">
<style type="text/css">
	.st0{fill:#FFFFFF;}
</style>
<title>icon-slide-arrow--left</title>
<desc>Created with Sketch.</desc>
<g id="_x31__x5F_首頁">
	<g id="_x31_-1_x5F_首頁" transform="translate(-82.000000, -275.000000)">
		<g id="slider" transform="translate(-865.000000, 0.000000)">
			
				<g id="icon-slide-arrow--left" transform="translate(974.000000, 319.000000) scale(-1, 1) translate(-974.000000, -319.000000) translate(948.000000, 276.000000)">
				<path id="icon-arrow" class="st0" d="M43.4,44.4l-32.1,33c-0.8,0.8-2,0.8-2.7,0c-0.8-0.8-0.8-2,0-2.8L39.3,43L8.6,11.4
					c-0.8-0.8-0.8-2,0-2.8C8.9,8.2,9.4,8,9.9,8c0.5,0,1,0.2,1.4,0.6l32.1,33C44.2,42.4,44.2,43.6,43.4,44.4z"/>
			</g>
		</g>
	</g>
</g>
</svg>
