<?xml version="1.0" encoding="UTF-8"?>
<svg width="24px" height="24px" viewBox="0 0 24 24" version="1.1" xmlns="http://www.w3.org/2000/svg" xmlns:xlink="http://www.w3.org/1999/xlink">
    <!-- Generator: Sketch 63.1 (92452) - https://sketch.com -->
    <title>icon/24/light/loudly</title>
    <desc>Created with Sketch.</desc>
    <g id="icon/24/light/loudly" stroke="none" stroke-width="1" fill="none" fill-rule="evenodd">
        <g id="writing" transform="translate(2.000000, 0.000000)" fill-rule="nonzero">
            <path d="M5.96904507,13 C5.43384148,13 5,13.4477 5,14 C5,14.5523 5.43384148,15 5.96904507,15 L12.0309549,15 C12.5661585,15 13,14.5523 13,14 C13,13.4477 12.5661585,13 12.0309549,13 L5.96904507,13 Z" id="Path" fill="#CFCFCF"></path>
            <path d="M16,10 C16,9.4477 15.5268211,9 14.9430894,9 L4.05691057,9 C3.47317886,9 3,9.4477 3,10 C3,10.5523 3.47317886,11 4.05691057,11 L14.9430894,11 C15.5268211,11 16,10.5523 16,10 Z" id="Path" fill="#CFCFCF"></path>
            <path d="M14.9430894,6 L4.05691057,6 C3.47317886,6 3,6.4477 3,7 C3,7.5523 3.47317886,8 4.05691057,8 L14.9430894,8 C15.5268211,8 16,7.5523 16,7 C16,6.4477 15.5268211,6 14.9430894,6 Z" id="Path" fill="#CFCFCF"></path>
            <path d="M6.87599565,22.125 L3.74486621,22.125 C2.71240659,22.125 1.8724331,21.283875 1.8724331,20.25 L1.8724331,3.75 C1.8724331,2.716125 2.71240659,1.875 3.74486621,1.875 L15.2551338,1.875 C16.2875934,1.875 17.1275669,2.716125 17.1275669,3.75 L17.1275669,9.515625 C17.1275669,10.0334062 17.546711,10.453125 18.0637834,10.453125 C18.5808558,10.453125 19,10.0334062 19,9.515625 L19,3.75 C19,1.68225 17.320053,0 15.2551338,0 L3.74486621,0 C1.67994698,0 0,1.68225 0,3.75 L0,20.25 C0,22.31775 1.67994698,24 3.74486621,24 L6.87599565,24 C7.39306806,24 7.81221221,23.5802812 7.81221221,23.0625 C7.81221221,22.5447188 7.39306806,22.125 6.87599565,22.125 Z" id="Path" fill="#FFFFFF"></path>
            <path d="M21.0573223,13.8043585 C19.8004814,12.7320257 17.7554958,12.7319799 16.4994608,13.8036251 L10.6003028,18.8256299 C10.4750163,18.9322948 10.3826094,19.0636663 10.3311409,19.2081475 L9.04641681,22.8167394 C8.93251996,23.1366882 9.0317499,23.484094 9.30542467,23.7234139 C9.51043899,23.9026861 9.788949,24 10.0746044,24 C10.1701811,24 10.266671,23.9890906 10.3613881,23.9666758 L14.6983327,22.9416936 C14.8768069,22.8995227 15.039486,22.8187104 15.1705748,22.7070492 L21.057376,17.6938911 C22.3142169,16.6215583 22.3142169,14.8767829 21.0573223,13.8043585 Z M13.85238,21.2390891 L11.6705033,21.754766 L12.3090241,19.9611732 L16.2894501,16.5726034 L17.8093282,17.8693588 L13.85238,21.2390891 Z M19.5385724,16.3968607 L19.3303883,16.5741161 L17.8107788,15.2775899 L18.0182645,15.1009305 C18.4372114,14.7434862 19.1188733,14.7434862 19.5378202,15.1009305 C19.9567672,15.4583747 19.9567672,16.0399665 19.5385724,16.3968607 Z" id="Shape" fill="#CFCFCF"></path>
        </g>
    </g>
</svg>