<?xml version="1.0" encoding="utf-8"?>
<!-- Generator: Adobe Illustrator 24.0.2, SVG Export Plug-In . SVG Version: 6.00 Build 0)  -->
<svg version="1.1" id="圖層_1" xmlns="http://www.w3.org/2000/svg" xmlns:xlink="http://www.w3.org/1999/xlink" x="0px" y="0px"
	 viewBox="0 0 54 88" style="enable-background:new 0 0 54 88;" xml:space="preserve">
<style type="text/css">
	.st0{fill:#FFFFFF;}
</style>
<title>icon-slide-arrow--left</title>
<desc>Created with Sketch.</desc>
<g id="_x31__x5F_首頁">
	<g id="_x31_-1_x5F_首頁" transform="translate(-82.000000, -275.000000)">
		<g id="slider" transform="translate(-865.000000, 0.000000)">
			
				<g id="icon-slide-arrow--left" transform="translate(974.000000, 319.000000) scale(-1, 1) translate(-974.000000, -319.000000) translate(948.000000, 276.000000)">
				<path id="icon-arrow" class="st0" d="M8.6,41.6l32.1-33C41.1,8.2,41.6,8,42.1,8c0.5,0,1,0.2,1.4,0.6c0.8,0.8,0.8,2,0,2.8
					L12.7,43l30.8,31.6c0.8,0.8,0.8,2,0,2.8c-0.8,0.8-2,0.8-2.7,0l-32.1-33C7.8,43.6,7.8,42.4,8.6,41.6z"/>
			</g>
		</g>
	</g>
</g>
</svg>
