<?xml version="1.0" encoding="utf-8"?>
<!-- Generator: Adobe Illustrator 24.0.1, SVG Export Plug-In . SVG Version: 6.00 Build 0)  -->
<svg version="1.1" id="圖層_1" xmlns="http://www.w3.org/2000/svg" xmlns:xlink="http://www.w3.org/1999/xlink" x="0px" y="0px"
	 viewBox="0 0 32 32" style="enable-background:new 0 0 32 32;" xml:space="preserve">
<style type="text/css">
	.st0{fill:#00151D;}
	.st1{fill:#111111;}
</style>
<title>icon/light/_layout</title>
<desc>Created with Sketch.</desc>
<g>
	<path class="st0" d="M24.8,14.9c-0.1,0-0.2,0-0.3-0.1L16,7.1l-8.5,7.7c-0.2,0.2-0.5,0.2-0.7,0c-0.2-0.2-0.2-0.5,0-0.7l8.8-8
		c0.2-0.2,0.5-0.2,0.7,0l8.8,8c0.2,0.2,0.2,0.5,0,0.7C25.1,14.8,24.9,14.9,24.8,14.9z"/>
	<g>
		<path class="st1" d="M11.9,20.1H9.6v6.3H8.5v-6.3H6.2v-0.9h5.6v0.9C11.8,20.1,11.9,20.1,11.9,20.1z"/>
		<path class="st1" d="M19.4,22.8c0,0.5-0.1,1-0.3,1.5c-0.2,0.4-0.4,0.8-0.7,1.2c-0.3,0.3-0.7,0.6-1.1,0.8s-0.9,0.3-1.5,0.3
			c-0.5,0-1-0.1-1.5-0.3c-0.4-0.2-0.8-0.4-1.1-0.8c-0.3-0.3-0.6-0.7-0.7-1.2s-0.3-0.9-0.3-1.5c0-0.5,0.1-1,0.3-1.5
			c0.2-0.4,0.4-0.8,0.7-1.2c0.3-0.3,0.7-0.6,1.1-0.8c0.4-0.2,0.9-0.3,1.5-0.3c0.5,0,1,0.1,1.5,0.3c0.4,0.2,0.8,0.4,1.1,0.8
			c0.3,0.3,0.6,0.7,0.7,1.2C19.3,21.8,19.4,22.3,19.4,22.8z M18.3,22.8c0-0.4-0.1-0.8-0.2-1.2c-0.1-0.3-0.3-0.6-0.5-0.9
			c-0.2-0.2-0.5-0.4-0.8-0.5s-0.6-0.2-1-0.2s-0.7,0.1-1,0.2s-0.6,0.3-0.8,0.5s-0.4,0.5-0.5,0.9s-0.2,0.7-0.2,1.2
			c0,0.4,0.1,0.8,0.2,1.2s0.3,0.6,0.5,0.9c0.2,0.2,0.5,0.4,0.8,0.5s0.6,0.2,1,0.2s0.7-0.1,1-0.2s0.6-0.3,0.8-0.5
			c0.2-0.2,0.4-0.5,0.5-0.9C18.2,23.6,18.3,23.2,18.3,22.8z"/>
		<path class="st1" d="M22.9,19.2c0.5,0,0.9,0.1,1.2,0.2c0.3,0.1,0.6,0.3,0.8,0.5c0.2,0.2,0.4,0.4,0.5,0.7c0.1,0.3,0.2,0.6,0.2,0.9
			s-0.1,0.6-0.2,0.9s-0.3,0.5-0.5,0.7s-0.5,0.4-0.8,0.5s-0.7,0.2-1.2,0.2h-1.1v2.6h-1.1v-7.2C20.7,19.2,22.9,19.2,22.9,19.2z
			 M22.9,22.9c0.3,0,0.5,0,0.7-0.1s0.4-0.2,0.5-0.3c0.1-0.1,0.2-0.3,0.3-0.5c0.1-0.2,0.1-0.4,0.1-0.6c0-0.4-0.1-0.8-0.4-1
			S23.4,20,22.9,20h-1.1v2.9H22.9z"/>
	</g>
</g>
</svg>
