<?xml version="1.0" encoding="UTF-8"?>
<svg width="100px" height="100px" viewBox="0 0 100 100" version="1.1" xmlns="http://www.w3.org/2000/svg" xmlns:xlink="http://www.w3.org/1999/xlink">
    <!-- Generator: Sketch 63.1 (92452) - https://sketch.com -->
    <title>icon/100/inactive/state/search</title>
    <desc>Created with Sketch.</desc>
    <g id="icon/100/inactive/state/search" stroke="none" stroke-width="1" fill="none" fill-rule="evenodd">
        <rect id="BG" fill-rule="nonzero" x="0" y="0" width="100" height="100"></rect>
        <path d="M45.5,6 C67.3152476,6 85,23.6847524 85,45.5 C85,55.3273633 81.4111714,64.3165108 75.4726142,71.2283425 L94.4120812,90.1694405 C95.5836541,91.3410134 95.5836541,93.2405083 94.4120812,94.4120812 C93.2873713,95.5367912 91.4918083,95.5817796 90.3134301,94.5470464 L90.1694405,94.4120812 L71.2283425,75.4726142 C64.3165108,81.4111714 55.3273633,85 45.5,85 C23.6847524,85 6,67.3152476 6,45.5 C6,23.6847524 23.6847524,6 45.5,6 Z M45.5,12 C26.9984609,12 12,26.9984609 12,45.5 C12,64.0015391 26.9984609,79 45.5,79 C64.0015391,79 79,64.0015391 79,45.5 C79,26.9984609 64.0015391,12 45.5,12 Z M46.2958984,54.9355469 C47.21875,54.9355469 48.0061035,55.2541504 48.657959,55.8913574 C49.3098145,56.5285645 49.6357422,57.3012695 49.6357422,58.2094727 C49.6357422,59.2348633 49.3061523,60.0405273 48.6469727,60.6264648 C47.987793,61.2124023 47.21875,61.5053711 46.3398438,61.5053711 C45.4462891,61.5053711 44.6662598,61.2160645 43.9997559,60.6374512 C43.333252,60.0588379 43,59.2495117 43,58.2094727 C43,57.3012695 43.3186035,56.5285645 43.9558105,55.8913574 C44.5930176,55.2541504 45.3730469,54.9355469 46.2958984,54.9355469 Z M46.4716797,28.2387695 C47.7314453,28.2387695 48.5737305,28.6745605 48.9985352,29.5461426 C49.4233398,30.4177246 49.6357422,31.6738281 49.6357422,33.3144531 C49.6357422,34.28125 49.5844727,35.2626953 49.4819336,36.2587891 L49.4819336,36.2587891 L48.5371094,47.0913086 L48.5062387,47.4354258 C48.3936515,48.5576656 48.1842152,49.4317294 47.8779297,50.0576172 C47.5410156,50.7460938 46.984375,51.090332 46.2080078,51.090332 C45.4169922,51.090332 44.8676758,50.7570801 44.5600586,50.0905762 C44.2524414,49.4240723 44.0327148,48.409668 43.9008789,47.0473633 L43.9008789,47.0473633 L43.1977539,36.5224609 L43.1738071,36.1447201 C43.0579357,34.2899189 43,32.9436646 43,32.105957 C43,30.8901367 43.3186035,29.9416504 43.9558105,29.260498 C44.5930176,28.5793457 45.4316406,28.2387695 46.4716797,28.2387695 Z" id="Combined-Shape" fill="#CFCFCF" fill-rule="nonzero"></path>
    </g>
</svg>