<?xml version="1.0" encoding="UTF-8"?>
<svg width="302px" height="302px" viewBox="0 0 302 302" version="1.1" xmlns="http://www.w3.org/2000/svg" xmlns:xlink="http://www.w3.org/1999/xlink">
    <!-- Generator: Sketch 63.1 (92452) - https://sketch.com -->
    <title>icon_UFO</title>
    <desc>Created with Sketch.</desc>
    <defs>
        <radialGradient cx="50%" cy="50%" fx="50%" fy="50%" r="49.9630558%" id="radialGradient-1">
            <stop stop-color="#008FC6" offset="0%"></stop>
            <stop stop-color="#00151D" stop-opacity="0" offset="99.963049%"></stop>
        </radialGradient>
    </defs>
    <g id="O_其他" stroke="none" stroke-width="1" fill="none" fill-rule="evenodd">
        <g id="O-2_404" transform="translate(-532.000000, -140.000000)">
            <g id="UFO" transform="translate(532.000000, 140.000000)">
                <g id="icon_UFO">
                    <circle id="BG" fill="url(#radialGradient-1)" opacity="0.7" cx="151" cy="151" r="151"></circle>
                    <path d="M62.2822177,155.165332 C101.533236,185.300316 171.882919,204.030906 220.133035,197.808605 C245.33758,194.557572 261.322691,184.850721 265.142815,170.475818 C267.950756,159.909202 263.829836,148.123449 253.225232,136.391526 C244.147175,126.349565 230.541368,116.557041 213.777192,107.985929 C207.598819,88.1999657 191.836297,71.8993103 170.533091,66.1440417 C149.229886,60.3887731 127.495037,66.5602771 112.331853,80.5811152 C93.562864,79.554553 76.9235184,81.1747623 64.0817366,85.2946582 C49.0794794,90.1082796 39.665281,98.2373785 36.8573397,108.804752 C33.037216,123.179656 42.0663941,139.644076 62.2822177,155.165332 L62.2822177,155.165332 Z M47.752964,111.747968 C51.110612,99.1138231 72.7138624,91.4593386 102.855992,91.6610118 C99.0982833,97.2707118 96.187319,103.590817 94.3547125,110.487131 C93.1597958,114.984596 93.4162254,122.148545 101.426453,130.740885 C103.559105,133.029042 107.128815,133.141252 109.399081,130.989565 C111.668596,128.839395 111.779139,125.240362 109.645735,122.951447 C106.22116,119.277355 104.618663,115.80721 105.251089,113.430347 C112.537899,86.011887 140.42781,69.784016 167.614607,77.1291671 C194.589343,84.4166973 210.957219,112.39772 203.620025,140.004965 C201.768618,146.971031 179.918714,151.915816 149.894648,143.804155 C142.868779,141.906455 136.212138,139.503814 130.108964,136.662951 C127.280719,135.348285 123.929839,136.590925 122.624379,139.442403 C121.31892,142.29388 122.55294,145.672286 125.381185,146.988469 C141.44676,154.465541 161.338475,159.30949 179.237409,159.30949 C196.891945,159.30949 211.450526,154.480705 214.516401,142.948181 C216.349007,136.051866 216.962634,129.11082 216.48963,122.358558 C242.694325,137.378664 257.606343,154.898457 254.248695,167.532602 C251.728015,177.015792 238.772682,183.939401 218.702745,186.527793 C173.016924,192.419533 105.754172,174.245439 69.1178327,146.117331 C53.0191699,133.758402 45.232284,121.231159 47.752964,111.747968 Z" id="Shape" fill="#FFFFFF" fill-rule="nonzero"></path>
                    <ellipse id="Oval" fill="#FF6600" fill-rule="nonzero" cx="143.969432" cy="166.011278" rx="5.52401747" ry="5.58270677"></ellipse>
                    <ellipse id="Oval" fill="#FF6600" fill-rule="nonzero" cx="232.353712" cy="154.845865" rx="5.52401747" ry="5.58270677"></ellipse>
                    <ellipse id="Oval" fill="#FF9900" fill-rule="nonzero" cx="200.213974" cy="172.101504" rx="5.52401747" ry="5.58270677"></ellipse>
                    <path d="M73.6637555,118.81203 C76.7144862,118.81203 79.1877729,116.312466 79.1877729,113.229323 C79.1877729,110.14618 76.7144862,107.646617 73.6637555,107.646617 C70.6130247,107.646617 68.139738,110.14618 68.139738,113.229323 C68.139738,116.312466 70.6130247,118.81203 73.6637555,118.81203 Z" id="Path" fill="#FF6600" fill-rule="nonzero"></path>
                    <ellipse id="Oval" fill="#FF9900" fill-rule="nonzero" cx="93.7510917" cy="142.665414" rx="5.52401747" ry="5.58270677"></ellipse>
                    <path d="M117.966815,118.412923 C120.926746,119.572968 124.240922,118.113435 125.394509,115.210291 C131.193745,100.611926 147.088964,92.667517 162.371126,96.736013 C165.421909,97.547286 168.56507,95.7488379 169.384262,92.7145254 C170.20269,89.6809711 168.390238,86.5632566 165.334874,85.7497091 C144.430599,80.1898356 122.678885,91.0571023 114.741963,111.035647 C113.580742,113.957746 115.025207,117.260461 117.966815,118.412923 Z" id="Path" fill="#FFFFFF" fill-rule="nonzero"></path>
                </g>
            </g>
        </g>
    </g>
</svg>