<?xml version="1.0" encoding="UTF-8"?>
<svg width="100px" height="100px" viewBox="0 0 100 100" version="1.1" xmlns="http://www.w3.org/2000/svg" xmlns:xlink="http://www.w3.org/1999/xlink">
    <!-- Generator: Sketch 63.1 (92452) - https://sketch.com -->
    <title>icon/100/inactive/state/blank</title>
    <desc>Created with Sketch.</desc>
    <g id="icon/100/inactive/state/blank" stroke="none" stroke-width="1" fill="none" fill-rule="evenodd">
        <rect id="BG" fill-rule="nonzero" x="0" y="0" width="100" height="100"></rect>
        <path d="M90,11 C95.5228475,11 100,15.4771525 100,21 L100,68.0723078 C100,73.5951553 95.5228475,78.0723078 90,78.0723078 L35.87,78.072 L16.1231909,91.334145 C15.2062253,91.9499761 13.9636481,91.7058583 13.347817,90.7888927 C13.1263825,90.4591792 13.0081301,90.0710022 13.0081301,89.6738319 L13.008,78.072 L10,78.0723078 C4.4771525,78.0723078 0,73.5951553 0,68.0723078 L0,21 C0,15.4771525 4.4771525,11 10,11 L90,11 Z M90,17 L10,17 C7.85780461,17 6.10892112,18.6839685 6.00489531,20.8003597 L6,21 L6,68.0723078 C6,70.2145032 7.68396847,71.9633866 9.79979991,72.0674125 L9.99938612,72.0723078 L19.0079327,72.0713861 L19.007,82.169 L34.0421744,72.0719896 L90,72.0723078 C92.1421954,72.0723078 93.8910789,70.3883393 93.9951047,68.2719481 L94,68.0723078 L94,21 C94,18.8578046 92.3160315,17.1089211 90.1996403,17.0048953 L90,17 Z M50.4707031,54.9355469 C51.3935547,54.9355469 52.1809082,55.2541504 52.8327637,55.8913574 C53.4846191,56.5285645 53.8105469,57.3012695 53.8105469,58.2094727 C53.8105469,59.2348633 53.480957,60.0405273 52.8217773,60.6264648 C52.1625977,61.2124023 51.3935547,61.5053711 50.5146484,61.5053711 C49.6210938,61.5053711 48.8410645,61.2160645 48.1745605,60.6374512 C47.5080566,60.0588379 47.1748047,59.2495117 47.1748047,58.2094727 C47.1748047,57.3012695 47.4934082,56.5285645 48.1306152,55.8913574 C48.7678223,55.2541504 49.5478516,54.9355469 50.4707031,54.9355469 Z M50.6464844,28.2387695 C51.90625,28.2387695 52.7485352,28.6745605 53.1733398,29.5461426 C53.5981445,30.4177246 53.8105469,31.6738281 53.8105469,33.3144531 C53.8105469,34.28125 53.7592773,35.2626953 53.6567383,36.2587891 L53.6567383,36.2587891 L52.7119141,47.0913086 L52.6810434,47.4354258 C52.5684562,48.5576656 52.3590199,49.4317294 52.0527344,50.0576172 C51.7158203,50.7460937 51.1591797,51.090332 50.3828125,51.090332 C49.5917969,51.090332 49.0424805,50.7570801 48.7348633,50.0905762 C48.4272461,49.4240723 48.2075195,48.409668 48.0756836,47.0473633 L48.0756836,47.0473633 L47.3725586,36.5224609 L47.3486118,36.1447201 C47.2327404,34.2899189 47.1748047,32.9436646 47.1748047,32.105957 C47.1748047,30.8901367 47.4934082,29.9416504 48.1306152,29.260498 C48.7678223,28.5793457 49.6064453,28.2387695 50.6464844,28.2387695 Z" id="Combined-Shape" fill="#CFCFCF" fill-rule="nonzero"></path>
    </g>
</svg>