<?xml version="1.0" encoding="UTF-8"?>
<svg width="204px" height="66px" viewBox="0 0 204 66" version="1.1" xmlns="http://www.w3.org/2000/svg" xmlns:xlink="http://www.w3.org/1999/xlink">
    <!-- Generator: Sketch 63.1 (92452) - https://sketch.com -->
    <title>vi/logo</title>
    <desc>Created with Sketch.</desc>
    <defs>
        <polygon id="path-1" points="0 66 204 66 204 0 0 0"></polygon>
    </defs>
    <g id="vi/logo" stroke="none" stroke-width="1" fill="none" fill-rule="evenodd">
        <mask id="mask-2" fill="white">
            <use xlink:href="#path-1"></use>
        </mask>
        <g id="mask"></g>
        <path d="M52,54.5550212 C52,51.9223709 52.8748663,49.7279594 54.6245989,47.968569 C56.3743315,46.2104657 58.5410025,45.3314141 61.1252526,45.3314141 L61.1252526,46.6570703 C58.9630647,46.6570703 57.1211061,47.4119221 55.6006576,48.9222693 C54.0795687,50.4306859 53.3193445,52.3104149 53.3193445,54.5550212 C53.3193445,56.7822523 54.0699618,58.6523285 55.5724775,60.1607451 C57.0756335,61.6717358 58.9265586,62.4265876 61.1252526,62.4265876 L61.1252526,63.7522439 C58.596082,63.7522439 56.443501,62.868044 54.6662287,61.1009314 C52.8883159,59.3331753 52,57.1516342 52,54.5550212 L52,54.5550212 Z M71.7703131,63.7522439 L67.043089,59.7746317 L67.043089,63.7522439 L65.6955643,63.7522439 L65.6955643,45.3314141 L66.7132529,45.3314141 C68.7467086,45.3314141 70.4874747,46.0309229 71.9349109,47.4312278 C73.3829876,48.829602 74.1067057,50.5600339 74.1067057,52.6225233 C74.1067057,54.27895 73.6577443,55.7152921 72.7598215,56.930906 C71.8618987,58.1445893 70.6155664,59.0577477 69.0221057,59.6645893 L73.9139277,63.7522439 L71.7703131,63.7522439 Z M72.7598215,52.7325656 C72.7598215,51.0568332 72.2237577,49.6629636 71.1516302,48.5490262 C70.0801431,47.4357324 68.7102024,46.7954276 67.043089,46.6300423 L67.043089,58.6980186 C68.6916291,58.5133277 70.0385133,57.8974767 71.0831011,56.8472481 C72.2013417,55.7436071 72.7598215,54.3722608 72.7598215,52.7325656 L72.7598215,52.7325656 Z M97.229819,54.5833362 C97.229819,57.1786622 96.3139633,59.398171 94.4816116,61.2380017 C92.6486194,63.0791194 90.440959,64 87.8573494,64 C85.2737399,64 83.0571131,63.0977815 81.206188,61.2933446 C79.355263,59.4895512 78.4304409,57.2809822 78.4304409,54.6650635 C78.4304409,51.9603387 79.355263,49.6854869 81.206188,47.8437257 C83.0571131,46.003895 85.3294598,45.0836579 88.0225877,45.0836579 C90.587624,45.0836579 92.7639019,46.0167655 94.5501406,47.8861981 C96.3370198,49.7549873 97.229819,51.9867231 97.229819,54.5833362 L97.229819,54.5833362 Z M79.749145,54.5550212 C79.749145,56.7822523 80.5369089,58.6883658 82.1130772,60.271431 C83.6892456,61.8557832 85.5946096,62.6473158 87.8298097,62.6473158 C90.047077,62.6473158 91.9485983,61.8686537 93.533733,60.3139035 C95.1182273,58.7578662 95.9104745,56.8755631 95.9104745,54.6650635 C95.9104745,52.3104149 95.1137441,50.3489585 93.5190025,48.7832684 C91.9255417,47.2182218 89.9644579,46.4363421 87.6376722,46.4363421 C85.4754843,46.4363421 83.6207165,47.2413887 82.0720879,48.8527688 C80.5234593,50.464149 79.749145,52.3651143 79.749145,54.5550212 L79.749145,54.5550212 Z M101.05912,62.3982727 C102.634648,62.3982727 103.688202,62.3068925 104.219783,62.1222015 C105.300877,61.7547502 105.841424,60.9258933 105.841424,59.6375614 C105.841424,58.7173243 105.488531,57.5930906 104.783386,56.2674344 C104.077601,54.9430652 103.385906,53.6630991 102.708301,52.4281795 C101.957043,50.9558002 101.581094,49.7498391 101.581094,48.8122269 C101.581094,47.6513124 101.942313,46.7812701 102.666671,46.2014564 C103.390389,45.6209992 104.347875,45.3314141 105.539127,45.3314141 L106.528636,45.3314141 L106.528636,46.6570703 C105.373889,46.6570703 104.586125,46.7310754 104.164703,46.877155 C103.340433,47.1725318 102.927978,47.7883827 102.927978,48.728569 C102.927978,49.6854869 103.29432,50.86442 104.027005,52.2627942 C104.70461,53.4784081 105.383496,54.694022 106.061101,55.9089924 C106.812359,57.3820152 107.188308,58.6240135 107.188308,59.6375614 C107.188308,60.9619306 106.73038,61.9928535 105.813244,62.7290432 C104.971041,63.4105334 103.871373,63.7522439 102.516163,63.7522439 L101.05912,63.7522439 L101.05912,62.3982727 Z M110.659593,62.3982727 C112.235761,62.3982727 113.289316,62.3068925 113.820256,62.1222015 C114.90135,61.7547502 115.442537,60.9258933 115.442537,59.6375614 C115.442537,58.7173243 115.089644,57.5930906 114.383859,56.2674344 C113.678714,54.9430652 112.987019,53.6630991 112.309414,52.4281795 C111.557516,50.9558002 111.182207,49.7498391 111.182207,48.8122269 C111.182207,47.6513124 111.544066,46.7812701 112.267784,46.2014564 C112.991502,45.6209992 113.948988,45.3314141 115.1396,45.3314141 L116.129109,45.3314141 L116.129109,46.6570703 C114.975002,46.6570703 114.187238,46.7310754 113.765176,46.877155 C112.940906,47.1725318 112.529091,47.7883827 112.529091,48.728569 C112.529091,49.6854869 112.895434,50.86442 113.628118,52.2627942 C114.306364,53.4784081 114.983969,54.694022 115.662214,55.9089924 C116.413472,57.3820152 116.788781,58.6240135 116.788781,59.6375614 C116.788781,60.9619306 116.331493,61.9928535 115.414357,62.7290432 C114.572154,63.4105334 113.471846,63.7522439 112.116636,63.7522439 L110.659593,63.7522439 L110.659593,62.3982727 Z M121.360373,63.7528874 L122.707258,63.7528874 L122.707258,45.3314141 L121.360373,45.3314141 L121.360373,63.7528874 Z M133.654615,63.7522439 L133.654615,49.6944962 L129.7792,47.3758848 L129.7792,63.7522439 L128.432316,63.7522439 L128.432316,45 L133.654615,48.1764268 L133.654615,45.3314141 L135.001499,45.3314141 L135.001499,63.7522439 L133.654615,63.7522439 Z M139.902928,54.5003218 C139.902928,51.9049958 140.777153,49.7279594 142.527527,47.968569 C144.277259,46.2104657 146.434964,45.3314141 149,45.3314141 L149,46.6570703 C146.819879,46.6570703 144.983044,47.3977646 143.489495,48.8797968 C141.995946,50.363116 141.249171,52.2357663 141.249171,54.5003218 C141.249171,56.4328196 141.839674,58.0943946 143.022601,59.4850466 C144.204247,60.875055 145.747111,61.7817782 147.653116,62.2058594 L147.653116,49.9435394 L149,49.9435394 L149,63.7522439 C146.361311,63.4748857 144.217696,62.5540051 142.568516,60.9902456 C140.791244,59.295851 139.902928,57.1323285 139.902928,54.5003218 L139.902928,54.5003218 Z" id="CROSSING" fill="#FFFFFF" fill-rule="nonzero" mask="url(#mask-2)"></path>
        <path d="M101.999682,31 C149.176985,31 189.282117,45.6224347 204,66 C188.12358,46.9797649 148.443669,33.4964059 101.999682,33.4964059 C55.5563308,33.4964059 15.8764202,46.9797649 0,66 C14.7178826,45.6224347 54.8236513,31 101.999682,31" id="線" fill="#FF6600" fill-rule="nonzero" mask="url(#mask-2)"></path>
        <path d="M79,1 L79,5 L82,5 L82,6 L79,6 L79,13.474 L80.4305328,12 L81,12.4649891 L79,14.526 L79,25 L78,25 L78,24.522 L77,23.8701493 L77.2660199,23 L78,23.478 L78,15.557 L77.5700642,16 L77,15.536105 L78,14.505 L78,6 L77,6 L77,5 L78,5 L78,1 L79,1 Z M84.3032527,1 L85,1.32772572 L84.32,3 L87,3 L87,4 L86.668,4 L85.269,7 L88,7 L88,6 L89,6 L89,17 L90,17 L90,18 L86.568,18 L90,23.5386857 L89.3373045,24 L85.62,18 L84.38,18 L80.662075,24 L80,23.5386857 L83.431,18 L80,18 L80,17 L82,17 L82,6 L82.273,6 L84.3032527,1 Z M116.324476,7 L117,7.40200493 L113.331,13 L116.69,13 L116,11.4457872 L116.533931,11 L119,16.5542128 L118.466069,17 L117,13.698 L117,14 L116,14 L116,16 L116,16 C116.552486,16 117,16.4486188 117,17.001105 C117,17.5535912 116.552486,18 116,18 L116,24 L115,24 L115,17.495 L112.570576,20 L112,19.536105 L115,16.443 L115,14 L112,14 L112,13 L112.391,13 L116.324476,7 Z M121.407089,0 L122,0.32 L121.057,3 L127,3 L127,4 L126,4 L126,11 L125,11 L125,8 L120,8 L120,11 L125,11 L125,12 L123,12 L123,24 L122,24 L122,16.205 L119.658706,23 L119,22.695232 L121.658,14.982 L119,13.7974342 L119.300497,13 L121.937,14.173 L122,13.99 L122,12 L119,12 L119,3 L120.352,3 L121.407089,0 Z M97,2 L97,3 L104,3 L104,2 L105,2 L105,3 L107,3 L107,4 L105,4 L105,11 L107,11 L107,12 L105,12 L105,20 L107,20 L107,21 L105,21 L105,24 L104,24 L104,21 L97,21 L97,24 L96,24 L96,2 L97,2 Z M125.699565,13 L126,13.7974342 L124.209,14.595 L127,22.695232 L126.341849,23 L123.547,14.89 L123.300435,15 L123,14.2018906 L123.268,14.082 L123,13.304768 L123.659261,13 L123.93,13.787 L125.699565,13 Z M104,12 L97,12 L97,20 L104,20 L104,12 Z M85,8 L83,8 L83,17 L85,17 L85,8 Z M88,8 L86,8 L86,11 L86,11 C86.5524862,11 87,11.4461623 87,11.9983435 C87,12.5505246 86.5524862,13 86,13 L86,17 L88,17 L88,8 Z M104,4 L97,4 L97,11 L104,11 L104,4 Z M125,4 L120,4 L120,7 L125,7 L125,4 Z M84,3.789 L83,6.251 L83,7 L84.332,7 L85.73,4 L84,4 L84,3.789 Z M115.303114,1 L116,1.32587859 L114.102,6 L117,6 L117,7 L110,7 L110,6 L113.273,6 L115.303114,1 Z" id="換日線" fill="#FFFFFF" fill-rule="nonzero" mask="url(#mask-2)"></path>
    </g>
</svg>